<svg width="471" height="392" viewBox="0 0 471 392" fill="none" xmlns="http://www.w3.org/2000/svg">
<rect width="471" height="392" fill="#1E1E1E"/>
<path d="M268 384.5C255.385 379.418 247.672 375.271 232.5 365L212 354.5C195.296 345.954 186.573 342.641 172 339C160.993 335.201 154.114 333.756 141 332C124.213 330.882 114.799 329.851 98 325.5C85.192 322.846 77.0576 320.064 61 313C50.4095 308.375 44.4922 304.809 34 295.5C22.2462 286.765 16.7352 279.939 8.99998 264C1.21237 246.207 0.334897 237.272 0.999978 222C1.71587 203.059 4.33973 193.722 11.5 178.5C19.1246 164.84 23.7854 158.483 32.5 148.5C53.0521 130.715 65.6661 123.5 89.5 114C101.834 107.835 108.034 103.537 117.5 94C128.427 83.1048 133.285 76.3415 138.5 62.5C148.21 40.9933 155.3 31.0199 172.5 19C188.479 8.03172 195.119 5.71648 205.5 4.00002C230.337 -1.0024 244.754 0.414103 271 7.50002C307.264 17.2336 325.841 19.8148 357.5 22C382.026 25.7082 394.731 31.6416 416.5 45.5C435.85 59.879 443.946 68.9824 455 86.5C469.8 114.871 471.275 129.736 469 155.5C463.473 183.794 456.551 197.303 439.5 218.5C429.953 231.431 425.151 239.062 418.5 254C413.002 263.436 409.929 269.799 404.5 288C400.841 309.399 397.622 320.198 389 336.5C383.908 347.849 379.77 354.475 366.5 367.5C356.258 377.655 348.436 381.807 331.5 387C320.287 390.394 312.257 390.964 296 390.5C286.457 390.09 280.603 389.161 268 384.5Z" stroke="black"/>
</svg>
